<?xml version="1.0" standalone="no"?>
<!DOCTYPE svg PUBLIC "-//W3C//DTD SVG 20010904//EN"
 "http://www.w3.org/TR/2001/REC-SVG-20010904/DTD/svg10.dtd">
<svg version="1.0" xmlns="http://www.w3.org/2000/svg"
 width="4582.000000pt" height="1684.000000pt" viewBox="0 0 4582.000000 1684.000000"
 preserveAspectRatio="xMidYMid meet">

<g transform="translate(0.000000,1684.000000) scale(0.100000,-0.100000)"
fill="#000000" stroke="none">
<path d="M2010 16826 c-172 -32 -334 -178 -379 -341 -8 -28 -11 -593 -11
-1942 l0 -1903 -542 -3 c-336 -2 -562 -8 -593 -14 -94 -20 -157 -46 -228 -93
-125 -81 -211 -199 -242 -335 -19 -80 -19 -313 0 -402 40 -190 179 -350 349
-402 43 -14 141 -16 651 -19 l600 -2 0 -563 c0 -671 17 -1266 41 -1432 3 -22
12 -94 19 -160 33 -290 95 -558 209 -908 51 -155 182 -447 251 -557 12 -19 41
-70 64 -113 48 -88 142 -229 241 -362 37 -49 83 -114 103 -143 54 -80 82 -115
265 -332 12 -14 51 -61 88 -105 166 -198 581 -623 738 -755 144 -121 241 -199
331 -265 140 -102 181 -131 255 -178 47 -30 112 -69 145 -87 33 -18 65 -37 71
-41 47 -37 474 -246 579 -284 28 -10 55 -21 60 -25 6 -4 33 -15 60 -25 28 -9
64 -23 80 -31 37 -16 338 -115 420 -139 33 -9 80 -23 105 -30 25 -7 61 -16 80
-20 19 -3 44 -10 55 -15 11 -5 45 -13 75 -19 30 -5 114 -21 185 -35 72 -14
182 -33 245 -42 63 -9 126 -18 140 -20 14 -2 79 -9 145 -14 66 -6 145 -17 175
-23 77 -17 1128 -17 1185 0 22 6 99 16 170 22 72 6 144 13 160 16 17 3 91 14
165 25 442 65 830 169 1295 345 288 110 501 210 830 393 200 111 496 309 690
462 61 47 134 105 164 128 251 196 685 648 857 893 21 30 71 98 110 150 196
261 408 618 528 889 51 114 55 124 76 180 11 30 25 64 30 75 4 11 22 61 39
110 17 50 39 115 50 146 23 65 84 296 101 384 31 159 41 219 55 325 8 63 17
126 20 140 3 14 9 99 15 190 6 91 15 215 21 275 7 70 9 377 7 852 l-3 743
1170 2 1170 3 3 607 c2 595 2 607 -17 618 -14 7 -381 9 -1173 8 l-1153 -3 0
1507 0 1508 4258 0 4257 0 0 -1507 0 -1508 -1175 3 c-805 1 -1182 -1 -1195 -8
-20 -10 -20 -25 -20 -605 0 -326 3 -600 6 -609 6 -14 120 -16 1195 -16 l1189
0 1 -267 c0 -148 0 -362 -1 -478 -1 -115 4 -273 9 -350 6 -77 16 -225 21 -330
13 -249 44 -531 70 -645 6 -25 21 -108 35 -185 13 -77 31 -171 40 -210 9 -38
21 -90 26 -115 4 -25 13 -61 18 -80 5 -19 15 -55 21 -80 14 -55 49 -180 57
-200 3 -8 14 -35 23 -60 10 -25 36 -94 58 -155 22 -60 45 -123 52 -140 7 -16
16 -39 21 -50 4 -11 20 -47 35 -80 14 -33 35 -82 46 -109 37 -95 159 -325 239
-452 45 -71 97 -155 116 -186 34 -58 174 -250 202 -278 8 -8 39 -49 70 -90
182 -248 595 -664 874 -879 65 -50 143 -112 174 -137 31 -26 91 -68 132 -95
42 -27 81 -52 87 -56 5 -4 17 -12 26 -18 9 -5 51 -35 95 -66 43 -31 128 -84
188 -119 61 -34 130 -75 155 -90 80 -49 338 -179 494 -249 226 -102 674 -263
866 -311 19 -5 58 -15 85 -23 187 -54 541 -115 800 -137 66 -6 147 -15 180
-20 144 -22 695 -19 1050 5 164 12 352 26 380 30 17 2 77 9 135 15 258 27 584
86 800 144 169 45 428 125 500 154 14 6 66 25 115 42 95 35 135 51 255 107
124 57 145 68 151 76 3 5 9 8 13 7 28 -5 462 243 623 358 53 37 103 72 112 77
73 45 255 179 345 256 12 9 64 52 116 94 52 42 142 120 200 172 180 164 584
575 627 638 89 128 221 328 293 441 79 126 157 225 224 286 l41 37 18 -52 c9
-29 20 -60 24 -71 28 -84 246 -474 282 -506 3 -3 22 -27 41 -55 114 -165 436
-511 605 -651 33 -27 62 -51 65 -54 46 -46 205 -171 329 -258 13 -10 58 -43
100 -76 73 -56 179 -127 238 -161 15 -9 40 -23 54 -33 150 -101 213 -140 324
-202 160 -90 408 -217 535 -275 52 -23 125 -57 163 -74 135 -62 624 -239 765
-277 28 -7 78 -21 110 -29 161 -44 349 -84 522 -111 58 -9 114 -18 125 -19 27
-5 198 -24 265 -30 271 -25 651 -25 1010 0 147 11 337 26 370 30 19 3 96 12
170 20 117 13 332 45 410 61 14 3 57 11 95 19 180 36 297 65 491 121 169 48
438 136 491 160 17 8 36 14 42 14 6 0 19 4 29 10 9 5 78 35 152 66 196 81 527
246 670 334 112 68 164 102 212 138 32 23 62 42 67 42 5 0 11 3 13 8 2 4 34
27 73 52 80 52 365 273 475 368 94 82 395 383 476 477 127 146 144 166 220
272 43 59 81 110 84 113 46 39 311 442 428 650 112 201 253 493 268 557 4 15
10 33 14 38 13 18 87 217 114 305 66 221 83 293 121 530 9 52 20 118 25 145 5
28 14 97 20 155 6 58 13 112 15 120 3 8 10 130 17 270 15 294 15 622 3 1218
l-8 422 511 0 c566 0 582 1 697 65 86 48 188 162 210 235 4 14 11 30 15 35 44
58 57 397 20 516 -62 202 -241 359 -455 400 -50 10 -200 14 -532 16 l-463 3
-2 1923 -3 1922 -39 77 c-71 143 -205 243 -356 267 -86 14 -307 14 -389 0
-178 -31 -324 -176 -408 -404 -17 -48 -18 -135 -21 -1925 l-2 -1875 -4668 0
-4667 0 3 1740 c3 1760 -1 1981 -33 2075 -55 158 -167 296 -288 353 -72 34
-97 38 -265 44 -265 10 -383 -25 -503 -147 -43 -43 -78 -92 -100 -136 l-34
-69 -3 -1930 -2 -1930 -1868 3 c-1027 1 -1882 0 -1900 -3 l-32 -6 2 -612 3
-612 1899 -3 1899 -2 -7 -498 c-3 -273 -8 -508 -10 -522 -2 -14 -7 -90 -11
-170 -6 -143 -20 -338 -31 -435 -20 -188 -64 -507 -79 -575 -3 -14 -10 -54
-15 -90 -6 -36 -17 -87 -25 -115 -8 -27 -22 -77 -31 -110 -27 -97 -55 -189
-64 -205 -4 -9 -11 -31 -15 -50 -4 -19 -11 -39 -15 -45 -4 -5 -11 -26 -15 -45
-4 -19 -11 -41 -16 -50 -13 -24 -49 -108 -49 -115 0 -3 -9 -27 -21 -53 -11
-26 -27 -63 -36 -82 -96 -221 -344 -597 -508 -770 -55 -58 -132 -140 -170
-181 -39 -40 -113 -106 -165 -146 -52 -40 -108 -84 -124 -99 -44 -42 -101 -83
-272 -200 -280 -190 -397 -266 -474 -307 -41 -22 -86 -48 -100 -57 -63 -44
-372 -203 -477 -245 -45 -19 -97 -40 -115 -48 -18 -8 -67 -27 -108 -42 -41
-15 -89 -33 -107 -41 -17 -8 -38 -14 -46 -14 -9 0 -18 -4 -22 -9 -3 -5 -20
-13 -38 -16 -38 -8 -124 -34 -152 -45 -20 -8 -62 -20 -165 -45 -30 -7 -80 -20
-110 -28 -50 -14 -144 -27 -400 -57 -198 -23 -462 -32 -850 -27 -223 3 -436
10 -475 16 -38 6 -135 18 -215 27 -184 22 -235 29 -285 44 -22 6 -60 16 -85
21 -25 5 -52 14 -60 18 -9 5 -36 12 -60 16 -25 4 -49 11 -55 15 -5 4 -29 11
-52 15 -24 4 -45 10 -48 15 -3 5 -23 11 -45 15 -22 4 -42 10 -45 15 -3 5 -23
11 -45 15 -22 4 -42 11 -46 16 -3 5 -12 9 -21 9 -8 0 -29 6 -46 14 -18 7 -45
18 -62 24 -16 6 -39 14 -50 18 -11 4 -22 8 -25 9 -3 0 -26 11 -52 23 -26 12
-50 22 -53 22 -25 0 -350 163 -490 245 -66 39 -128 74 -137 78 -31 11 -212
130 -308 201 -52 39 -126 92 -165 118 -74 51 -136 101 -225 184 -30 28 -79 73
-109 100 -80 72 -157 150 -236 239 -38 43 -93 104 -122 135 -77 83 -302 383
-352 470 -18 30 -51 84 -73 120 -44 70 -181 338 -203 398 -8 21 -23 62 -35 92
-65 168 -142 441 -166 595 -41 253 -44 342 -44 1282 l0 913 1698 2 1697 3 3
607 c2 595 2 607 -17 618 -14 7 -540 9 -1701 8 l-1680 -3 0 2108 0 2107 -5530
0 -5530 0 0 -2107 0 -2108 -1971 3 c-1357 1 -1976 -1 -1990 -8 -19 -11 -19
-24 -17 -618 l3 -607 1989 -3 1988 -2 -5 -788 c-3 -433 -8 -805 -11 -827 -3
-22 -10 -87 -16 -145 -5 -58 -14 -132 -19 -165 -10 -56 -26 -155 -51 -305 -6
-36 -14 -72 -17 -80 -4 -8 -12 -40 -19 -70 -7 -30 -18 -77 -24 -105 -6 -27
-15 -59 -20 -70 -5 -11 -12 -36 -16 -55 -3 -19 -10 -41 -15 -50 -4 -8 -21 -58
-38 -110 -32 -102 -93 -255 -143 -360 -92 -192 -328 -559 -438 -680 -12 -14
-61 -70 -109 -124 -177 -204 -459 -452 -711 -625 -58 -40 -150 -104 -205 -142
-55 -38 -129 -86 -165 -106 -36 -19 -118 -66 -182 -104 -64 -38 -119 -69 -123
-69 -6 0 -178 -85 -222 -109 -25 -14 -98 -45 -168 -70 -33 -13 -64 -26 -70
-30 -11 -9 -298 -110 -385 -136 -30 -9 -62 -20 -70 -24 -9 -5 -31 -12 -50 -15
-19 -4 -44 -11 -55 -16 -11 -5 -42 -14 -70 -20 -67 -15 -148 -35 -215 -53 -30
-8 -136 -25 -235 -36 -99 -12 -207 -26 -240 -31 -104 -16 -523 -31 -705 -25
-213 8 -344 18 -560 45 -91 11 -187 23 -215 26 -27 4 -75 13 -105 21 -30 9
-80 20 -110 27 -30 6 -59 14 -65 17 -5 4 -30 10 -55 14 -25 4 -49 11 -55 15
-5 4 -29 11 -52 15 -24 4 -45 10 -48 15 -3 4 -25 11 -50 14 -24 4 -47 11 -50
15 -2 5 -21 12 -41 16 -20 3 -44 10 -53 15 -9 5 -52 21 -96 35 -44 15 -89 31
-100 35 -11 5 -51 20 -90 35 -38 14 -78 30 -87 35 -10 6 -23 10 -29 10 -13 0
-371 175 -459 226 -36 20 -94 52 -130 71 -159 86 -536 353 -696 492 -66 58
-136 118 -154 133 -90 74 -354 367 -474 527 -418 556 -641 1086 -727 1721 -18
136 -20 207 -25 1095 l-5 880 1610 -3 1609 -2 6 22 c10 39 7 1164 -4 1192
l-10 26 -1605 -2 -1605 -3 -2 1887 c-2 1493 -6 1890 -15 1900 -7 6 -13 18 -13
25 0 24 -61 146 -103 205 -69 99 -180 168 -301 188 -82 13 -315 11 -396 -4z
m41117 -6198 c-4 -746 -11 -939 -41 -1173 -8 -60 -22 -166 -31 -235 -9 -69
-20 -136 -25 -150 -4 -14 -13 -43 -18 -65 -34 -126 -77 -267 -91 -300 -14 -31
-91 -239 -94 -250 -1 -5 -4 -12 -7 -15 -7 -7 -87 -170 -106 -215 -8 -20 -48
-89 -89 -155 -41 -65 -75 -123 -75 -129 0 -5 -4 -11 -8 -13 -9 -3 -77 -95
-176 -235 -32 -45 -66 -90 -75 -100 -64 -71 -194 -218 -231 -264 -25 -30 -76
-83 -115 -118 -38 -36 -119 -112 -180 -171 -60 -59 -146 -133 -190 -165 -44
-33 -116 -88 -160 -124 -133 -106 -334 -235 -553 -355 -55 -30 -108 -59 -118
-65 -17 -9 -151 -71 -199 -91 -97 -41 -160 -66 -285 -110 -80 -29 -154 -56
-165 -60 -33 -14 -69 -24 -79 -22 -4 2 -13 -2 -20 -7 -6 -5 -29 -12 -51 -16
-22 -4 -44 -11 -50 -15 -5 -4 -30 -11 -55 -15 -25 -4 -49 -11 -55 -15 -5 -4
-30 -11 -55 -14 -25 -4 -56 -11 -70 -15 -56 -19 -108 -31 -155 -36 -211 -23
-403 -46 -416 -50 -8 -3 -130 -9 -270 -14 -292 -10 -638 0 -849 25 -218 25
-420 52 -470 64 -25 6 -70 17 -100 23 -30 7 -59 15 -65 18 -5 4 -34 10 -62 14
-29 4 -55 11 -58 15 -3 4 -28 11 -55 15 -27 4 -52 10 -55 15 -3 4 -25 11 -50
14 -24 4 -47 11 -50 15 -2 5 -21 12 -41 16 -20 3 -44 10 -53 15 -9 5 -56 21
-106 36 -49 15 -97 31 -105 35 -8 4 -49 19 -90 34 -41 15 -83 31 -92 36 -10 5
-23 9 -28 9 -11 0 -30 8 -185 80 -176 82 -200 94 -235 115 -19 12 -87 49 -150
81 -132 67 -257 144 -387 237 -49 36 -121 85 -159 109 -38 25 -103 74 -145
109 -181 153 -338 290 -341 298 -2 5 -59 68 -128 141 -69 72 -162 182 -208
243 -45 62 -96 129 -113 150 -61 75 -254 405 -321 550 -37 81 -68 150 -68 153
0 3 -7 22 -16 42 -9 21 -22 52 -30 70 -8 18 -14 37 -14 43 0 6 -6 25 -14 42
-36 80 -75 224 -110 407 -25 126 -27 141 -47 285 -7 51 -14 421 -18 1033 l-6
952 4668 0 4668 0 -4 -762z"/>
<path d="M6552 12622 c-10 -7 -12 -137 -10 -618 l3 -609 593 -3 592 -2 0 614
c0 551 -2 614 -16 620 -24 9 -1147 7 -1162 -2z"/>
<path d="M16225 12608 c-3 -13 -4 -291 -3 -618 l3 -595 585 0 585 0 3 605 c2
560 1 606 -15 618 -13 9 -146 12 -585 12 l-568 0 -5 -22z"/>
<path d="M17887 12623 c-16 -4 -17 -40 -15 -616 l3 -612 593 -3 592 -2 0 614
c0 551 -2 614 -16 620 -18 7 -1130 6 -1157 -1z"/>
<path d="M27115 12608 c-3 -13 -4 -291 -3 -618 l3 -595 590 0 590 0 3 605 c2
560 1 606 -15 618 -13 9 -147 12 -590 12 l-573 0 -5 -22z"/>
<path d="M11740 4465 c-25 -13 -308 -155 -630 -315 -325 -162 -586 -298 -588
-306 -8 -36 121 -374 142 -374 3 0 49 15 103 34 103 35 260 108 378 175 39 22
77 43 85 48 8 4 74 40 145 81 187 108 365 194 479 233 l98 34 -5 60 c-11 114
-110 355 -145 355 -9 0 -37 -11 -62 -25z"/>
<path d="M32130 4166 c-66 -24 -70 -41 -70 -313 l0 -243 284 0 285 0 0 233 c2
340 4 337 -284 336 -117 0 -192 -5 -215 -13z"/>
<path d="M11895 3970 c-71 -37 -323 -165 -560 -285 -236 -120 -457 -232 -490
-250 -33 -17 -82 -40 -110 -50 -27 -10 -56 -25 -62 -34 -19 -22 -17 -253 3
-349 21 -103 66 -185 178 -322 205 -251 429 -555 483 -658 29 -56 33 -72 33
-140 -1 -135 -48 -196 -196 -251 -144 -53 -319 -81 -512 -81 -253 0 -453 60
-482 144 -6 18 -10 189 -10 452 l0 424 -262 0 -261 0 6 -357 c3 -197 2 -393
-2 -435 -14 -130 -57 -186 -146 -190 -63 -3 -185 10 -205 22 -24 15 -19 212 8
320 38 151 71 315 77 387 l7 70 -54 7 c-29 3 -109 19 -178 36 -133 31 -278 56
-286 48 -3 -3 -7 -32 -10 -64 -30 -336 -133 -726 -211 -797 -23 -20 -122 -57
-154 -57 -67 0 -119 59 -152 172 -20 69 -22 93 -20 411 l1 337 -259 0 -259 0
6 -257 c4 -163 2 -293 -5 -353 -12 -106 -36 -249 -44 -256 -3 -3 -49 -15 -103
-26 -131 -29 -328 -29 -464 -2 l-95 20 2 122 c1 87 10 159 29 249 25 121 53
325 54 386 0 26 -2 27 -47 27 -54 0 -145 17 -282 53 -118 31 -144 25 -171 -39
-24 -54 -37 -104 -56 -202 -8 -43 -18 -97 -24 -122 -6 -25 -17 -79 -25 -120
-26 -135 -63 -261 -82 -282 -38 -42 -141 -83 -290 -114 -63 -13 -199 -15 -278
-5 -107 14 -175 34 -231 69 -76 47 -74 33 -74 466 l0 386 -258 0 -259 0 -6
-637 c-3 -351 -11 -678 -16 -728 -19 -166 -61 -286 -118 -337 -22 -21 -135
-72 -178 -82 -203 -47 -595 -208 -595 -245 0 -9 9 -36 20 -60 11 -24 36 -92
56 -150 53 -156 93 -241 115 -241 10 0 51 13 91 29 40 15 129 45 198 65 378
113 460 149 595 256 135 108 244 288 319 527 14 45 26 89 26 97 0 13 57 15
438 18 488 4 469 1 587 78 90 58 115 59 237 12 208 -80 371 -107 593 -99 214
8 374 52 546 150 l76 43 23 -34 c38 -54 108 -110 163 -129 44 -15 84 -18 252
-17 235 0 270 9 370 95 105 91 97 89 159 31 100 -95 220 -136 391 -135 91 0
124 5 190 26 88 29 165 76 211 129 l29 34 80 -50 c81 -50 169 -94 202 -101 10
-2 30 -8 46 -14 68 -27 206 -31 612 -22 361 9 419 12 488 30 157 41 310 145
407 277 77 103 145 267 172 414 17 89 16 312 -1 380 -35 144 -136 305 -321
515 -138 157 -234 279 -291 370 -52 85 -56 95 -36 95 13 0 208 77 302 119 118
54 270 130 425 214 91 50 196 107 233 127 38 20 68 41 68 46 -2 22 -227 463
-236 463 -5 -1 -68 -31 -140 -69z"/>
<path d="M29218 3761 c-122 -7 -136 -15 -165 -90 -17 -43 -18 -114 -18 -1156
0 -905 3 -1124 14 -1185 8 -41 19 -133 25 -205 l11 -130 255 0 255 0 2 1340
c2 1049 0 1345 -10 1364 -25 49 -55 61 -162 65 -55 2 -148 1 -207 -3z"/>
<path d="M39749 3731 l-29 -30 2 -1353 3 -1353 235 -3 c129 -1 245 0 258 3
l22 5 0 1380 0 1380 -231 0 -231 0 -29 -29z"/>
<path d="M38913 3389 c-54 -16 -66 -52 -71 -217 -6 -199 2 -265 38 -305 l28
-32 210 0 c232 0 250 4 277 60 12 26 15 72 15 220 0 286 1 285 -282 284 -100
0 -198 -5 -215 -10z"/>
<path d="M32123 3350 c-271 -29 -464 -202 -552 -495 -32 -110 -39 -150 -52
-313 -24 -313 19 -494 152 -636 54 -58 168 -131 215 -139 10 -1 24 -5 29 -9
23 -14 167 -36 270 -42 61 -3 170 -2 243 2 72 4 132 5 132 3 0 -2 -9 -18 -20
-36 -30 -49 -103 -90 -205 -116 -78 -19 -117 -22 -290 -23 -110 -1 -292 2
-405 7 -113 4 -279 10 -370 13 -91 3 -176 10 -190 14 -14 5 -43 14 -66 19
l-40 11 -18 92 c-28 146 -35 284 -29 541 l6 237 -261 0 -262 0 -2 -753 -3
-752 -33 -67 c-52 -105 -187 -213 -345 -275 -34 -13 -71 -28 -82 -33 -34 -16
-247 -69 -305 -76 -30 -4 -62 -8 -70 -10 -8 -1 -19 -3 -24 -3 -21 -2 15 -159
79 -341 12 -36 29 -87 37 -115 l14 -50 55 1 c57 2 203 41 379 102 113 39 380
168 380 183 0 5 6 9 13 9 20 0 134 94 207 170 75 78 128 163 169 270 29 74 33
92 47 197 l6 52 812 4 c727 2 816 5 859 20 177 61 336 210 417 391 65 143 63
124 64 766 1 605 1 607 -41 745 -46 154 -142 271 -274 337 -91 46 -247 84
-371 92 -51 4 -118 8 -148 10 -30 2 -87 0 -127 -4z m320 -582 l117 -23 0 -221
0 -222 -137 -7 c-220 -12 -358 8 -383 56 -25 45 6 278 45 345 29 50 44 62 92
80 55 19 133 17 266 -8z"/>
<path d="M6120 3000 l0 -260 280 0 280 0 0 260 0 260 -280 0 -280 0 0 -260z"/>
<path d="M6760 3000 l0 -260 285 0 285 0 0 260 0 260 -285 0 -285 0 0 -260z"/>
<path d="M19000 3000 l0 -260 260 0 260 0 0 260 0 260 -260 0 -260 0 0 -260z"/>
<path d="M26290 2980 c0 -154 3 -280 8 -280 4 0 19 8 32 18 22 15 55 17 253
20 l227 3 -2 257 -3 257 -257 3 -258 2 0 -280z"/>
<path d="M25035 3162 c-6 -5 -64 -28 -130 -51 -66 -24 -164 -62 -219 -84 l-99
-41 7 -96 c3 -52 13 -131 22 -175 9 -44 20 -100 25 -124 14 -69 61 -209 150
-446 82 -219 83 -221 83 -317 1 -119 -10 -138 -112 -189 -57 -29 -95 -39 -189
-52 -152 -22 -383 -23 -423 -2 -44 23 -64 87 -56 177 19 221 19 230 -6 278
-13 25 -34 51 -48 57 -17 9 -86 13 -222 13 l-198 0 0 -107 c0 -227 20 -541 40
-640 26 -122 50 -174 115 -239 103 -103 225 -125 730 -127 390 -2 392 -2 509
68 116 71 199 70 324 -4 107 -63 127 -66 502 -66 184 0 344 4 355 9 11 5 29
11 40 13 38 7 105 54 151 107 l47 53 61 -37 c94 -56 191 -95 306 -124 167 -41
324 -49 725 -37 193 6 422 13 510 15 133 3 171 7 225 25 203 70 374 255 443
481 19 61 21 99 24 568 l4 502 -260 0 -260 0 6 -392 c5 -353 4 -399 -12 -451
-44 -150 -131 -178 -535 -172 -740 12 -767 15 -867 74 l-44 26 6 77 c8 93 97
535 129 635 7 21 6 21 -346 60 -153 17 -157 17 -178 -2 -35 -32 -60 -152 -75
-370 -13 -184 -63 -324 -142 -402 -71 -71 -116 -83 -307 -83 -193 0 -268 16
-321 67 -19 18 -42 47 -50 64 -23 43 -74 192 -84 242 -16 81 -140 545 -222
832 -16 55 -43 152 -60 215 -49 187 -51 192 -74 172z"/>
<path d="M13710 3031 c-112 -18 -120 -37 -120 -283 0 -208 4 -225 53 -262 27
-20 40 -21 226 -20 123 1 206 6 219 13 11 6 31 26 44 43 22 32 23 41 26 271
l3 237 -78 0 c-43 0 -134 2 -203 4 -69 3 -145 1 -170 -3z"/>
<path d="M14277 3023 c-4 -3 -7 -129 -7 -280 l0 -273 265 0 265 0 0 280 0 280
-258 0 c-142 0 -262 -3 -265 -7z"/>
<path d="M34772 2658 l3 -283 235 -3 c129 -1 245 0 258 3 l22 5 0 280 0 280
-260 0 -260 0 2 -282z"/>
<path d="M16830 2760 c-85 -4 -175 -13 -200 -20 -133 -36 -221 -142 -266 -320
-16 -64 -19 -112 -19 -320 1 -218 3 -251 20 -300 20 -55 22 -57 117 -115 33
-21 86 -101 74 -113 -4 -3 -123 -6 -264 -6 -291 1 -516 23 -531 53 -5 9 -17
52 -27 96 -14 66 -18 140 -22 423 l-4 343 -218 -3 -219 -3 -30 -29 c-58 -55
-61 -84 -51 -526 5 -203 5 -205 -20 -255 -14 -28 -40 -60 -59 -72 l-34 -23
-781 0 c-725 0 -786 2 -852 19 -110 28 -161 66 -204 151 -45 90 -54 178 -51
523 l2 307 -261 0 -262 0 5 -422 c4 -329 8 -435 20 -478 58 -216 104 -308 216
-422 74 -76 178 -158 200 -158 6 0 11 -4 11 -9 0 -9 86 -49 155 -72 33 -11
213 -14 975 -14 l935 0 62 23 c40 16 91 48 144 92 46 38 88 66 93 63 6 -4 36
-23 66 -43 82 -55 178 -105 240 -126 46 -16 86 -19 250 -19 435 1 709 6 787
15 72 8 199 44 288 81 37 15 28 13 98 28 74 16 119 9 237 -40 52 -22 106 -42
120 -44 14 -3 41 -10 60 -16 19 -6 183 -14 370 -19 184 -5 387 -11 450 -15
145 -8 363 9 464 35 101 27 167 61 226 116 26 24 50 44 54 44 4 0 49 -29 99
-64 174 -121 127 -111 547 -111 396 0 412 2 524 57 32 17 90 51 129 76 l69 46
19 -24 c77 -99 138 -136 251 -152 39 -5 371 -7 790 -5 779 3 741 1 859 56 199
94 379 376 420 659 15 106 6 326 -16 405 -76 274 -267 454 -553 524 -215 52
-530 27 -723 -58 -209 -91 -324 -190 -580 -499 -53 -63 -124 -142 -160 -174
l-64 -60 -3 272 -2 272 -260 0 -260 0 1 -267 c2 -235 0 -283 -19 -387 -12 -65
-23 -121 -26 -123 -2 -3 -49 -14 -103 -25 -135 -29 -377 -29 -513 -1 l-95 20
2 124 c1 82 9 154 22 209 29 125 49 253 57 358 l7 92 -49 0 c-49 1 -92 10
-236 49 -147 40 -189 28 -229 -67 -20 -46 -76 -309 -104 -490 -8 -47 -55 -200
-75 -244 -7 -15 -20 -30 -29 -32 -103 -31 -637 -56 -830 -39 l-93 8 90 98 c59
63 95 111 102 135 33 109 36 441 6 555 -40 151 -158 272 -324 332 -198 71
-487 89 -1012 65z m705 -589 c33 -12 72 -30 87 -41 15 -11 32 -20 38 -20 15 0
-25 -99 -47 -116 -10 -8 -67 -44 -128 -80 -60 -37 -124 -77 -142 -90 -35 -26
-36 -26 -118 27 -22 14 -80 52 -130 84 -145 93 -153 99 -164 123 -6 12 -14 47
-17 77 l-7 54 129 4 c273 8 434 1 499 -22z m4719 -137 c80 -25 130 -75 146
-146 11 -48 10 -64 -10 -143 -27 -107 -38 -133 -59 -139 -9 -3 -74 -13 -146
-23 -104 -14 -203 -17 -497 -18 -201 0 -369 3 -373 6 -9 10 57 116 119 191 79
96 208 202 296 245 59 29 93 38 155 44 133 12 303 4 369 -17z"/>
<path d="M38888 2148 c-3 -391 -5 -427 -23 -481 -14 -40 -26 -59 -40 -62 -53
-11 -240 -36 -325 -44 -210 -18 -492 -7 -740 31 l-85 13 -3 55 c-4 67 22 260
53 395 13 55 27 153 31 218 l7 117 -54 0 c-51 0 -158 22 -279 55 -108 30 -146
19 -175 -52 -15 -36 -57 -227 -80 -363 -26 -151 -72 -311 -102 -354 -67 -96
-124 -109 -448 -104 -227 3 -242 4 -282 26 -53 28 -68 50 -89 132 -15 57 -16
106 -11 408 l7 342 -262 0 -261 0 6 -469 c8 -639 -6 -831 -70 -952 -28 -53
-55 -75 -133 -110 l-55 -24 -450 0 c-407 0 -453 2 -481 17 -98 54 -146 153
-180 373 -14 94 -16 159 -10 455 3 190 9 407 12 483 l7 137 -281 0 -280 0 -8
-117 c-12 -193 -10 -834 3 -993 20 -234 82 -450 167 -583 72 -112 240 -265
322 -293 10 -3 37 -15 59 -25 112 -52 365 -88 580 -83 654 15 695 18 821 65
213 80 402 312 474 582 l13 48 351 -3 c337 -2 354 -2 436 20 95 25 205 74 295
131 l60 38 38 -43 c81 -93 210 -139 429 -154 76 -5 175 -7 220 -4 46 3 243 9
438 14 277 7 368 12 415 25 301 83 460 376 485 897 5 105 6 297 3 425 l-6 233
-258 0 -258 0 -3 -422z"/>
<path d="M41090 1787 c0 -670 -1 -695 -21 -767 -27 -98 -60 -158 -123 -220
-86 -85 -187 -135 -421 -210 -102 -32 -265 -89 -321 -111 l-31 -12 33 -85 c40
-103 90 -270 99 -334 l6 -48 48 0 c104 0 511 139 736 252 267 134 424 381 496
778 20 114 23 163 27 555 2 237 1 535 -3 663 l-7 232 -259 0 -259 0 0 -693z"/>
<path d="M27207 604 c-9 -9 -9 -486 -1 -508 5 -14 38 -16 260 -16 l254 0 -2
263 -3 262 -251 3 c-138 1 -253 -1 -257 -4z"/>
<path d="M27853 603 c-10 -3 -13 -66 -13 -264 l0 -259 260 0 260 0 -2 263 -3
262 -245 2 c-135 1 -251 -1 -257 -4z"/>
<path d="M36743 603 c-10 -3 -13 -66 -13 -264 l0 -259 285 0 285 0 -2 262 -3
263 -270 2 c-148 1 -276 -1 -282 -4z"/>
<path d="M37434 602 c-11 -6 -17 -32 -44 -170 -5 -29 -10 -120 -10 -202 l0
-150 280 0 280 0 -2 263 -3 262 -245 2 c-135 2 -250 0 -256 -5z"/>
</g>
</svg>
