<svg version="1.1" id="Layer_1" xmlns="http://www.w3.org/2000/svg" xmlns:xlink="http://www.w3.org/1999/xlink" x="0px" y="0px" viewBox="-51 -10 422.9 87.5" style="enable-background:new -51 -10 422.9 87.5;" xml:space="preserve">
 <style type="text/css">
  .st0{fill:#FFFFFE;}
 </style>
 <title>
  Group
 </title>
 <desc>
  Created with Sketch.
 </desc>
 <g id="LOGOS">
  <g id="Group">
   <path id="Fill-1" class="st0" d="M-34.5,44.6h-13.5V20.9c0-0.9,0-2.2-1.5-2.2c-1.4,0-1.4,1.2-1.4,2.2v23.8c0,2,0.3,2.2,2.4,2.2h14
			c0.9,0,2.1,0,2.1-1.2C-32.4,44.6-33.6,44.6-34.5,44.6">
   </path>
   <path id="Fill-2" class="st0" d="M-28.5,26.4c-1.3,0-1.3,1.1-1.3,2v17.1c0,0.9,0,2,1.3,2c1.3,0,1.3-1.1,1.3-2V28.4
			C-27.2,27.6-27.2,26.4-28.5,26.4">
   </path>
   <path id="Fill-3" class="st0" d="M-28.5,19.5c-0.9,0-1.7,0.7-1.7,1.5c0,0.8,0.7,1.5,1.7,1.5c0.9,0,1.7-0.7,1.7-1.5
			C-26.9,20.2-27.6,19.5-28.5,19.5">
   </path>
   <path id="Fill-4" class="st0" d="M-18.1,22.3C-18.2,22.4-18.2,22.4-18.1,22.3C-18.2,22.4-18.2,22.4-18.1,22.3z M-15.7,26.9h-2.8
			v-1.8c0-2.5,0.2-4.2,3.4-4.2c0.1,0,0.5,0,0.8,0.1c0.4,0,0.8,0.1,1,0.1c0.7,0,1.1-0.5,1.1-1c0,0,0-0.6-0.6-0.9
			c-0.5-0.2-1.9-0.5-3.1-0.5c-0.9,0-1.8,0.2-2.6,0.6c-0.8,0.4-1.5,1-1.9,1.7c-0.3,0.5-0.6,1.3-0.6,3.7v2.1h-2.2
			c-0.4,0-1.7,0-1.7,0.9c0,0.9,1.2,0.9,1.7,0.9h2.2v16.8c0,0.9,0,2,1.3,2c1.3,0,1.3-1.1,1.3-2V28.7h2.8c1.1,0,1.7-0.3,1.7-0.9
			C-14.1,26.9-15.1,26.9-15.7,26.9L-15.7,26.9z">
   </path>
   <path id="Fill-5" class="st0" d="M-11.3,35.2c0.3-2.6,2.2-6.8,7.1-6.8c6.1,0,6.6,5.1,6.8,6.8H-11.3z M5.3,35.5
			c0-0.1,0-2.4-1.2-4.7c-0.7-1.3-1.6-2.3-2.8-3c-0.1-0.1-0.3-0.1-0.4-0.2c-0.1-0.1-0.2-0.1-0.3-0.1c-0.3-0.1-0.6-0.3-0.9-0.4
			c-0.1,0-0.2-0.1-0.3-0.1c-0.3-0.1-0.7-0.2-1.1-0.3c-0.1,0-0.2,0-0.2,0c-0.4-0.1-0.9-0.1-1.3-0.2c0,0-0.1,0-0.1,0
			c-0.3,0-0.5,0-0.8,0c-3.1,0-5.6,1-7.4,2.9c-1.7,1.8-2.6,4.5-2.6,7.6c0,3.1,0.8,5.6,2.4,7.5c0.8,1,1.9,1.7,3.1,2.2
			c1.3,0.5,2.8,0.8,4.4,0.8c3.8,0,6-1.5,7.2-2.8c1.4-1.4,1.8-3,1.8-3.3c0-0.5-0.5-1.1-1.3-1.1c-0.5,0-1,0.3-1.2,0.9
			c-0.8,1.8-1.9,3-3.4,3.7c-0.9,0.4-1.9,0.6-3,0.6c-2.3,0-4.1-0.8-5.4-2.3c-1.2-1.4-1.8-3.5-1.9-5.9H2.8C4.1,37.2,5.3,37.2,5.3,35.5
			L5.3,35.5z">
   </path>
   <path id="Fill-6" class="st0" d="M18.5,18.8c-1.4,0-1.4,1.3-1.4,2.2v24.3c0,0.9,0,2.2,1.5,2.2c1.4,0,1.4-1.2,1.4-2.2V20.9
			C20,20,20,18.8,18.5,18.8">
   </path>
   <path id="Fill-7" class="st0" d="M65.8,33.5c0.9,0,1.5-0.8,1.5-1.5V15.3h-3V32C64.3,32.7,64.8,33.5,65.8,33.5">
   </path>
   <path id="Fill-8" class="st0" d="M38.4,37c-0.2-0.1-0.4-0.2-0.6-0.3c-0.1,0-0.1-0.1-0.2-0.1c-1.4-0.6-3.1-1-4.7-1.4
			c-1.6-0.3-3.1-0.7-4.2-1.2c-1.2-0.6-1.8-1.4-1.8-2.5c0-2.2,2.6-3.2,5.2-3.2c2.7,0,4.8,1.1,5.4,2.8c0.4,1,0.7,1.2,1.2,1.2
			c1.2,0,1.2-1,1.2-1c0-0.3-0.2-1.5-1.2-2.6c-0.6-0.7-1.4-1.2-2.4-1.6c-1.2-0.5-2.7-0.7-4.3-0.7c-2.9,0-5.1,0.8-6.4,2.3
			c-1.2,1.4-1.3,3-1.3,3.3c0,1.5,0.8,2.8,2,3.7c1.3,0.9,2.6,1.2,5.3,1.8c0.7,0.2,1.5,0.4,2.5,0.6l0.1,0c1.5,0.4,4.1,1,4.1,3.5
			c0,1.9-1.8,3.8-5.9,3.8c-3,0-5-1.1-6-3.4l0-0.1c-0.3-0.6-0.5-1.2-1.3-1.2c-0.3,0-0.6,0.1-0.9,0.3c-0.3,0.2-0.4,0.5-0.4,0.8
			c0,1.1,1,2.7,2.3,3.8c0.6,0.5,1.3,0.9,2.2,1.2c1.1,0.4,2.4,0.5,4,0.5c3.3,0,5.8-0.8,7.3-2.4c1.3-1.4,1.5-3,1.5-3.7
			C41,39.4,40.1,38,38.4,37">
   </path>
   <path id="Fill-9" class="st0" d="M99.4,28.5c-0.9-1-2.7-2.1-5.8-2.1c-4.1,0-5.8,1.9-7,3.4v-1.5c0-0.6,0-1.2-0.4-1.6
			c0,0-0.1-0.1-0.1-0.1c0,0,0,0,0,0c-0.2-0.1-0.4-0.2-0.7-0.2c-1.3,0-1.3,1.2-1.3,2v17.1c0,0.9,0,2,1.3,2c0.3,0,0.5-0.1,0.7-0.2
			c0,0,0,0,0,0c0,0,0.1,0,0.1-0.1c0.4-0.4,0.4-1,0.4-1.6v-7.3c0-3.2,0.1-4.9,0.8-6.2c0.5-1.1,1.4-2,2.5-2.6c1.1-0.6,2.3-1,3.5-1
			c1.7,0,3.3,0.7,4.2,1.9c0.8,1,0.9,2.6,0.9,4.1v11c0,0.6,0,1.2,0.4,1.6c0,0,0.1,0.1,0.1,0.1c0,0,0,0,0,0c0.2,0.1,0.4,0.2,0.7,0.2
			c1.3,0,1.3-1.1,1.3-2V33.9C101,32.8,101,30.3,99.4,28.5">
   </path>
   <path id="Fill-10" class="st0" d="M69.9,18.4v2.9c4.8,1.7,8.2,6.2,8.2,11.5C78.2,39.5,72.7,45,66,45c-6.7,0-12.2-5.5-12.2-12.2
			c0-5.2,3.3-9.7,8-11.4v-2.9C55.5,20.3,51,26,51,32.8c0,8.2,6.7,15,15,15c8.2,0,15-6.7,15-15C80.9,25.9,76.3,20.1,69.9,18.4">
   </path>
   <path id="Fill-11" class="st0" d="M178.7,21.5c-5-2.2-8-3.1-10.9-3.1c-3.1,0-5.1,1.1-5.1,2.8c0,5.2,17.5,3.7,17.5,15.7
			c0,6.6-5.5,10.4-13.2,10.4c-6,0-9-1.6-12.4-3.3v-7.4c4.9,3.3,8,4.4,11.8,4.4c3.3,0,5.1-1.2,5.1-3.2c0-5.6-17.5-3.6-17.5-15.9
			c0-5.9,5.1-9.9,13.1-9.9c3.9,0,7.3,0.8,11.7,2.7V21.5">
   </path>
   <path id="Fill-12" class="st0" d="M203.3,45.8c-2.9,1.1-5.4,1.6-7.9,1.6c-8.2,0-13.5-4.8-13.5-12c0-7.1,5.5-12.1,13.2-12.1
			c2.4,0,5.4,0.6,7.8,1.5v5.4c-1.9-1-4.1-1.6-6-1.6c-4.4,0-7.2,2.6-7.2,6.7c0,4.1,2.8,6.8,7,6.8c1.8,0,3.3-0.4,6.6-1.6V45.8">
   </path>
   <path id="Fill-13" class="st0" d="M267,32.7c0.3-3.2,2.2-5.1,5-5.1c2.8,0,4.7,1.9,5,5.1H267z M271.6,23.3
			c-7.2,0-12.3,5.1-12.3,12.2c0,7.2,5.3,11.9,13.5,11.9c1.8,0,6.2,0,10.4-3.1v-4.5c-3.4,2.4-5.7,3.3-8.6,3.3c-4.6,0-7.4-2.4-7.7-6.5
			h16.7C283.9,28.1,278.3,23.3,271.6,23.3L271.6,23.3z">
   </path>
   <polygon id="Fill-14" class="st0" points="286.4,47 293.7,47 293.7,23.7 286.4,23.7 		">
   </polygon>
   <path id="Fill-15" class="st0" d="M314,40.6c-1.5,1.4-2.8,1.9-4.3,1.9c-3.4,0-5.6-2.8-5.6-7.1c0-4.6,2.2-7.3,5.9-7.3
			c1.3,0,3,0.6,4.1,1.4V40.6z M314,12.6v12.1c-2-1-3.9-1.5-6.1-1.5c-6.7,0-11.3,4.9-11.3,12c0,7,4.6,12.1,10.9,12.1
			c2.5,0,4.4-0.7,6.5-2.3V47h7.3V12.6H314L314,12.6z">
   </path>
   <path id="Fill-16" class="st0" d="M332.1,32.7c0.3-3.2,2.2-5.1,5-5.1c2.8,0,4.8,1.9,5.1,5.1H332.1z M336.6,23.3
			c-7.2,0-12.3,5.1-12.3,12.2c0,7.2,5.3,11.9,13.5,11.9c1.8,0,6.2,0,10.4-3.1v-4.5c-3.4,2.4-5.7,3.3-8.6,3.3c-4.6,0-7.4-2.4-7.7-6.5
			h16.7C349,28.1,343.4,23.3,336.6,23.3L336.6,23.3z">
   </path>
   <path id="Fill-17" class="st0" d="M359.6,30.4h0.1c2.2-4.8,4.6-7.1,7.4-7.1c1.5,0,2.7,0.6,4.8,2.1l-2,6.5
			c-1.9-1.2-3.2-1.7-4.3-1.7c-2.7,0-4.4,2.5-6,6.8v10h-7.3V23.7h7.3V30.4">
   </path>
   <path id="Fill-18" class="st0" d="M294,13.9c0.7,1.8-0.5,4.3-2.7,5.6c-2.2,1.3-4.5,0.9-5.2-0.9c-0.7-1.8,0.5-4.3,2.7-5.6
			C291,11.7,293.3,12.1,294,13.9">
   </path>
   <path id="Fill-19" class="st0" d="M229.6,32.2c0-6.3-4.3-8.9-8.5-8.9c-2.9,0-5.2,1.2-7.4,3.9h-0.1V12.6h-7.3v34.3h7.3V32.2
			c1.7-2.5,3.2-3.5,4.9-3.5c2.3,0,3.8,1.6,3.8,5.1v8.2c2.5-1.3,4.9-2,7.3-2.3V32.2">
   </path>
   <path id="Fill-20" class="st0" d="M247.9,23.3c-3,0-5.2,1.1-7.6,3.8v-3.3H233v15.8c2.5,0.3,5.8,1.4,7.3,3.3V32
			c1.9-2.9,3.3-3.8,5.1-3.8c2.1,0,3.6,1.4,3.6,4.6v14.1h7.3V32.2C256.4,25.3,251.6,23.3,247.9,23.3">
   </path>
   <polyline id="Fill-21" class="st0" points="260.4,53.6 251.9,53.6 251.9,59.6 260.1,59.6 260.1,62.2 251.9,62.2 251.9,68.4 
			260.7,68.4 260.7,71 249.1,71 249.1,51 260.4,51 260.4,53.6 		">
   </polyline>
   <polygon id="Fill-22" class="st0" points="267.4,71 270,71 270,51 267.4,51 		">
   </polygon>
   <path id="Fill-23" class="st0" d="M282.8,59.8c1.8,0,3,1.3,3.1,3.3h-6.6C279.7,61,280.9,59.8,282.8,59.8 M279.2,64.8h9.3
			c0-4.9-2.2-7.2-5.7-7.2c-3.6,0-6.1,2.7-6.1,6.7c0,3.7,2.3,7,6.4,7c2.2,0,3.7-0.5,5.3-1.6v-2.5c-1.5,1-3,1.6-4.6,1.6
			C281.1,68.8,279.7,67.4,279.2,64.8">
   </path>
   <path id="Fill-24" class="st0" d="M305.5,61.3c-1.5-1-2.5-1.3-3.6-1.3c-2.4,0-4,1.8-4,4.5c0,2.7,1.8,4.4,4.5,4.4
			c1.1,0,2.2-0.3,3.5-0.9v2.6c-0.9,0.4-2.5,0.8-3.9,0.8c-3.9,0-6.7-2.7-6.7-6.6c0-4.4,2.5-7.1,6.5-7.1c1.5,0,2.6,0.4,3.8,0.9V61.3">
   </path>
   <path id="Fill-25" class="st0" d="M317.3,57.8h4.2v2.3h-4.2v6.8c0,1.6,1.1,2,1.9,2c0.9,0,1.9-0.3,3-1v2.4
			c-0.9,0.5-2.3,0.9-3.2,0.9c-2.8,0-4.3-1.8-4.3-4.1v-7h-2.3v-0.3l4.9-4.8V57.8">
   </path>
   <path id="Fill-26" class="st0" d="M331.5,57.8v3.1h0.1c1.3-2.3,2.6-3.3,3.8-3.3c1.1,0,2.1,0.5,3.1,1.5l-1.4,2.3
			c-0.8-0.8-1.8-1.3-2.4-1.3c-1.8,0-3.2,1.8-3.2,4.1V71h-2.6V57.8H331.5">
   </path>
   <path id="Fill-27" class="st0" d="M365.1,61.3c-1.5-1-2.5-1.3-3.6-1.3c-2.4,0-4,1.8-4,4.5c0,2.7,1.8,4.4,4.5,4.4
			c1.1,0,2.2-0.3,3.5-0.9v2.6c-0.9,0.4-2.6,0.8-3.9,0.8c-3.9,0-6.7-2.7-6.7-6.6c0-4.4,2.5-7.1,6.5-7.1c1.5,0,2.5,0.4,3.8,0.9V61.3">
   </path>
   <polygon id="Fill-28" class="st0" points="345.4,71 348,71 348,57.8 345.4,57.8 		">
   </polygon>
   <path id="Fill-29" class="st0" d="M348,53.1c0.3,0.6-0.2,1.5-1,2c-0.8,0.5-1.6,0.3-1.9-0.3c-0.2-0.6,0.2-1.5,1-2
			C347,52.3,347.8,52.4,348,53.1">
   </path>
   <path id="Fill-30" class="st0" d="M231.6,54.1c-0.5,0-0.7,0.1-0.8,0.3c-0.1,0.1-0.1,0.2-0.1,0.3l-2.3,8.8
			c-0.5,3.1-4.4,6.2-9.3,6.2h-6.9l1.2-4.5h4.4c0.5,0,0.8-0.2,1.1-0.5c0.1-0.1,0.3-0.3,0.3-0.5l1.8-7.7c0.5-3.1,3.8-6.5,8.8-6.5h7.1
			l-0.9,4.2H231.6z M233.2,59.5l0.8-2.9h7.2c0.9-4.1,0.2-8-2.3-10.5c-5.1-5.1-15.8-3.4-23.7,4.2c-1.2,1.2-2.3,2.5-3.2,3.8h4.3
			l-1,2.9h-5.2c-0.5,0.9-1,1.8-1.3,2.7h6.1l-1,2.9h-6c-1,4.4-0.4,8.5,2.2,11.1c5,5,15.7,3.3,23.6-4.3c1.4-1.3,2.5-2.7,3.6-4.2h-5.6
			l0.8-2.9h6.5c0.5-0.9,0.9-1.8,1.3-2.7H233.2L233.2,59.5z">
   </path>
   <polygon id="Fill-31" class="st0" points="126.8,77.5 128.3,77.5 128.3,-10 126.8,-10 		">
   </polygon>
  </g>
 </g>
</svg>